<svg width="212" height="32" viewBox="0 0 212 32" fill="none" xmlns="http://www.w3.org/2000/svg">
<path d="M55 25.9152L61.56 4.69922H68.6L75.16 25.9152L74.584 26.7792H70.744L69.4 22.2992H60.76L59.416 26.7792H55.576L55 25.9152ZM62.008 18.1392H68.152L65.336 8.85922H64.824L62.008 18.1392Z" fill="white"/>
<path d="M77.4005 26.7792V4.69922H82.0085V26.7792H77.4005Z" fill="white"/>
<path d="M86.2842 26.7792V4.69922H91.2762L100.044 19.1952V4.69922H104.652V26.7792H99.6603L90.8923 12.2832V26.7792H86.2842Z" fill="white"/>
<path d="M108.949 26.7792V4.69922H119.381C122.965 4.69922 124.757 6.49122 124.757 10.0752V11.9952C124.757 12.7206 124.544 13.3392 124.117 13.8512L122.997 15.1952L124.341 16.3152C125.045 16.8912 125.397 17.7446 125.397 18.8752V21.4032C125.397 24.9872 123.605 26.7792 120.021 26.7792H108.949ZM113.557 22.6192H119.829C120.469 22.6192 120.789 22.2992 120.789 21.6592V18.4592C120.789 17.8192 120.469 17.4992 119.829 17.4992H113.557V22.6192ZM113.557 13.3392H119.189C119.829 13.3392 120.149 13.0192 120.149 12.3792V9.81922C120.149 9.17922 119.829 8.85922 119.189 8.85922H113.557V13.3392Z" fill="white"/>
<path d="M128.544 21.4032V10.0752C128.544 6.49122 130.336 4.69922 133.92 4.69922H141.216C144.8 4.69922 146.592 6.49122 146.592 10.0752V21.4032C146.592 24.9872 144.8 26.7792 141.216 26.7792H133.92C130.336 26.7792 128.544 24.9872 128.544 21.4032ZM133.152 21.6592C133.152 22.2992 133.472 22.6192 134.112 22.6192H141.024C141.664 22.6192 141.984 22.2992 141.984 21.6592V9.81922C141.984 9.17922 141.664 8.85922 141.024 8.85922H134.112C133.472 8.85922 133.152 9.17922 133.152 9.81922V21.6592Z" fill="white"/>
<path d="M150.368 21.4032V4.69922H154.977V21.6592C154.977 22.2992 155.296 22.6192 155.936 22.6192H162.208C162.848 22.6192 163.169 22.2992 163.169 21.6592V4.69922H167.776V21.4032C167.776 24.9872 165.984 26.7792 162.4 26.7792H155.744C152.16 26.7792 150.368 24.9872 150.368 21.4032Z" fill="white"/>
<path d="M171.882 26.7792V4.69922H176.874L185.642 19.1952V4.69922H190.25V26.7792H185.258L176.49 12.2832V26.7792H171.882Z" fill="white"/>
<path d="M194.547 26.7792V4.69922H202.931C208.947 4.69922 211.955 7.70722 211.955 13.7232V17.7552C211.955 23.7712 208.947 26.7792 202.931 26.7792H194.547ZM199.155 22.6192H203.187C205.96 22.6192 207.347 21.2326 207.347 18.4592V13.0192C207.347 10.2459 205.96 8.85922 203.187 8.85922H199.155V22.6192Z" fill="white"/>
<path d="M0 8.7793C0 6.89368 0 5.95087 0.585786 5.36508C1.17157 4.7793 2.11438 4.7793 4 4.7793H21.5114C22.905 4.7793 23.6018 4.7793 24.1037 5.11141C24.3277 5.25967 24.5196 5.45155 24.6679 5.6756C25 6.17748 25 6.87429 25 8.26792C25 9.10295 25 9.52046 24.8504 9.88523C24.7826 10.0504 24.693 10.2058 24.584 10.3472C24.3433 10.6595 23.982 10.8687 23.2593 11.2871L22.2459 11.8738C21.2718 12.4378 20.7847 12.7197 20.5174 13.1834C20.25 13.6471 20.25 14.2099 20.25 15.3355V16.2231C20.25 17.3487 20.25 17.9114 20.5174 18.3752C20.7847 18.8389 21.2718 19.1208 22.2459 19.6848L23.2593 20.2715C23.982 20.6899 24.3433 20.8991 24.584 21.2113C24.693 21.3528 24.7826 21.5082 24.8504 21.6734C25 22.0381 25 22.4556 25 23.2907C25 24.6843 25 25.3811 24.6679 25.883C24.5196 26.107 24.3277 26.2989 24.1037 26.4472C23.6018 26.7793 22.905 26.7793 21.5114 26.7793H4C2.11438 26.7793 1.17157 26.7793 0.585786 26.1935C0 25.6077 0 24.6649 0 22.7793V8.7793Z" fill="#FF8800"/>
<path d="M5 20.3967V11.1619C5 8.24017 6.4502 6.7793 9.3506 6.7793H16.2649L18 8.13582V10.1706H9.50598C8.98805 10.1706 8.72908 10.4315 8.72908 10.9532V20.6054C8.72908 21.1271 8.98805 21.388 9.50598 21.388H18V23.4228L16.2649 24.7793H9.3506C6.4502 24.7793 5 23.3184 5 20.3967Z" fill="white"/>
<path d="M53 8.7793C53 6.89368 53 5.95087 52.4142 5.36508C51.8284 4.7793 50.8856 4.7793 49 4.7793H31.4886C30.095 4.7793 29.3982 4.7793 28.8963 5.11141C28.6723 5.25967 28.4804 5.45155 28.3321 5.6756C28 6.17748 28 6.87429 28 8.26792C28 9.10295 28 9.52046 28.1496 9.88523C28.2174 10.0504 28.307 10.2058 28.416 10.3472C28.6567 10.6595 29.018 10.8687 29.7407 11.2871L30.7541 11.8738C31.7282 12.4378 32.2153 12.7197 32.4826 13.1834C32.75 13.6471 32.75 14.2099 32.75 15.3355V16.2231C32.75 17.3487 32.75 17.9114 32.4826 18.3752C32.2153 18.8389 31.7282 19.1208 30.7541 19.6848L29.7407 20.2715C29.018 20.6899 28.6567 20.8991 28.416 21.2113C28.307 21.3528 28.2174 21.5082 28.1496 21.6734C28 22.0381 28 22.4556 28 23.2907C28 24.6843 28 25.3811 28.3321 25.883C28.4804 26.107 28.6723 26.2989 28.8963 26.4472C29.3982 26.7793 30.095 26.7793 31.4886 26.7793H49C50.8856 26.7793 51.8284 26.7793 52.4142 26.1935C53 25.6077 53 24.6649 53 22.7793V8.7793Z" fill="#FF8800"/>
<path d="M35 24.7793V6.7793H38.7059V13.8228H45.2941V6.7793H49V24.7793H45.2941V17.2141H38.7059V24.7793H35Z" fill="white"/>
<rect x="22.5" y="12.5293" width="8" height="6.5" rx="2.5" fill="#FF8800"/>
</svg>
