<svg width="212" height="32" viewBox="0 0 212 32" fill="none" xmlns="http://www.w3.org/2000/svg">
<path d="M55 25.6359L61.56 4.41992H68.6L75.16 25.6359L74.584 26.4999H70.744L69.4 22.0199H60.76L59.416 26.4999H55.576L55 25.6359ZM62.008 17.8599H68.152L65.336 8.57992H64.824L62.008 17.8599Z" fill="#1A1A1A"/>
<path d="M77.4005 26.4999V4.41992H82.0085V26.4999H77.4005Z" fill="#1A1A1A"/>
<path d="M86.2842 26.4999V4.41992H91.2762L100.044 18.9159V4.41992H104.652V26.4999H99.6603L90.8923 12.0039V26.4999H86.2842Z" fill="#1A1A1A"/>
<path d="M108.949 26.4999V4.41992H119.381C122.965 4.41992 124.757 6.21192 124.757 9.79592V11.7159C124.757 12.4413 124.544 13.0599 124.117 13.5719L122.997 14.9159L124.341 16.0359C125.045 16.6119 125.397 17.4653 125.397 18.5959V21.1239C125.397 24.7079 123.605 26.4999 120.021 26.4999H108.949ZM113.557 22.3399H119.829C120.469 22.3399 120.789 22.0199 120.789 21.3799V18.1799C120.789 17.5399 120.469 17.2199 119.829 17.2199H113.557V22.3399ZM113.557 13.0599H119.189C119.829 13.0599 120.149 12.7399 120.149 12.0999V9.53992C120.149 8.89992 119.829 8.57992 119.189 8.57992H113.557V13.0599Z" fill="#1A1A1A"/>
<path d="M128.544 21.1239V9.79592C128.544 6.21192 130.336 4.41992 133.92 4.41992H141.216C144.8 4.41992 146.592 6.21192 146.592 9.79592V21.1239C146.592 24.7079 144.8 26.4999 141.216 26.4999H133.92C130.336 26.4999 128.544 24.7079 128.544 21.1239ZM133.152 21.3799C133.152 22.0199 133.472 22.3399 134.112 22.3399H141.024C141.664 22.3399 141.984 22.0199 141.984 21.3799V9.53992C141.984 8.89992 141.664 8.57992 141.024 8.57992H134.112C133.472 8.57992 133.152 8.89992 133.152 9.53992V21.3799Z" fill="#1A1A1A"/>
<path d="M150.368 21.1239V4.41992H154.977V21.3799C154.977 22.0199 155.296 22.3399 155.936 22.3399H162.208C162.848 22.3399 163.169 22.0199 163.169 21.3799V4.41992H167.776V21.1239C167.776 24.7079 165.984 26.4999 162.4 26.4999H155.744C152.16 26.4999 150.368 24.7079 150.368 21.1239Z" fill="#1A1A1A"/>
<path d="M171.882 26.4999V4.41992H176.874L185.642 18.9159V4.41992H190.25V26.4999H185.258L176.49 12.0039V26.4999H171.882Z" fill="#1A1A1A"/>
<path d="M194.547 26.4999V4.41992H202.931C208.947 4.41992 211.955 7.42792 211.955 13.4439V17.4759C211.955 23.4919 208.947 26.4999 202.931 26.4999H194.547ZM199.155 22.3399H203.187C205.96 22.3399 207.347 20.9533 207.347 18.1799V12.7399C207.347 9.96659 205.96 8.57992 203.187 8.57992H199.155V22.3399Z" fill="#1A1A1A"/>
<path d="M0 8.5C0 6.61438 0 5.67157 0.585786 5.08579C1.17157 4.5 2.11438 4.5 4 4.5H21.5114C22.905 4.5 23.6018 4.5 24.1037 4.83211C24.3277 4.98037 24.5196 5.17225 24.6679 5.3963C25 5.89818 25 6.595 25 7.98862C25 8.82365 25 9.24116 24.8504 9.60593C24.7826 9.77114 24.693 9.92652 24.584 10.0679C24.3433 10.3802 23.982 10.5894 23.2593 11.0078L22.2459 11.5945C21.2718 12.1585 20.7847 12.4404 20.5174 12.9041C20.25 13.3678 20.25 13.9306 20.25 15.0562V15.9438C20.25 17.0694 20.25 17.6322 20.5174 18.0959C20.7847 18.5596 21.2718 18.8415 22.2459 19.4055L23.2593 19.9922C23.982 20.4106 24.3433 20.6198 24.584 20.9321C24.693 21.0735 24.7826 21.2289 24.8504 21.3941C25 21.7588 25 22.1763 25 23.0114C25 24.405 25 25.1018 24.6679 25.6037C24.5196 25.8277 24.3277 26.0196 24.1037 26.1679C23.6018 26.5 22.905 26.5 21.5114 26.5H4C2.11438 26.5 1.17157 26.5 0.585786 25.9142C0 25.3284 0 24.3856 0 22.5V8.5Z" fill="#FF8800"/>
<path d="M5 20.1174V10.8826C5 7.96087 6.4502 6.5 9.3506 6.5H16.2649L18 7.85652V9.89131H9.50598C8.98805 9.89131 8.72908 10.1522 8.72908 10.6739V20.3261C8.72908 20.8478 8.98805 21.1087 9.50598 21.1087H18V23.1435L16.2649 24.5H9.3506C6.4502 24.5 5 23.0391 5 20.1174Z" fill="white"/>
<path d="M53 8.5C53 6.61438 53 5.67157 52.4142 5.08579C51.8284 4.5 50.8856 4.5 49 4.5H31.4886C30.095 4.5 29.3982 4.5 28.8963 4.83211C28.6723 4.98037 28.4804 5.17225 28.3321 5.3963C28 5.89818 28 6.595 28 7.98862C28 8.82365 28 9.24116 28.1496 9.60593C28.2174 9.77114 28.307 9.92652 28.416 10.0679C28.6567 10.3802 29.018 10.5894 29.7407 11.0078L30.7541 11.5945C31.7282 12.1585 32.2153 12.4404 32.4826 12.9041C32.75 13.3678 32.75 13.9306 32.75 15.0562V15.9438C32.75 17.0694 32.75 17.6322 32.4826 18.0959C32.2153 18.5596 31.7282 18.8415 30.7541 19.4055L29.7407 19.9922C29.018 20.4106 28.6567 20.6198 28.416 20.9321C28.307 21.0735 28.2174 21.2289 28.1496 21.3941C28 21.7588 28 22.1763 28 23.0114C28 24.405 28 25.1018 28.3321 25.6037C28.4804 25.8277 28.6723 26.0196 28.8963 26.1679C29.3982 26.5 30.095 26.5 31.4886 26.5H49C50.8856 26.5 51.8284 26.5 52.4142 25.9142C53 25.3284 53 24.3856 53 22.5V8.5Z" fill="#FF8800"/>
<path d="M35 24.5V6.5H38.7059V13.5435H45.2941V6.5H49V24.5H45.2941V16.9348H38.7059V24.5H35Z" fill="white"/>
<rect x="22.5" y="12.25" width="8" height="6.5" rx="2.5" fill="#FF8800"/>
</svg>
