<svg width="25" height="25" viewBox="0 0 25 25" fill="none" xmlns="http://www.w3.org/2000/svg">
<g clip-path="url(#clip0_2037_184)">
<path d="M18.3308 10.9512C19.1316 15.756 6.98186 17.5106 11.5568 21.0276C12.9939 22.1324 14.4613 21.286 14.239 19.5723C14.0536 18.1425 19.216 17.2767 18.8116 19.4374C18.2822 22.271 15.4523 24.5079 12.9989 24.5079C8.01178 24.5079 3.23232 18.6521 4.16648 14.4312C5.54659 8.19071 17.666 6.96283 18.3308 10.9512ZM4.73339 10.3566C3.68121 10.8241 1.29125 7.80984 3.07974 6.56207C4.86898 5.31452 5.78556 9.88892 4.73339 10.3566ZM7.69826 7.96222C6.44672 8.2205 4.55169 4.37799 6.78575 3.44709C9.01951 2.51635 8.95085 7.70439 7.69826 7.96222ZM19.7156 0.53418C24.655 0.53418 19.4066 7.63772 16.6283 7.63772C13.8495 7.63772 14.7762 0.53418 19.7154 0.53418M11.5138 6.75742C10.0337 6.66629 9.05611 1.78523 11.8358 1.42088C14.6164 1.05662 12.9932 6.84862 11.5138 6.75742Z" fill="white"/>
</g>
<defs>
<clipPath id="clip0_2037_184">
<rect width="24" height="24" fill="white" transform="translate(0.0936279 0.53418)"/>
</clipPath>
</defs>
</svg>
